<svg width="1403" height="1904" xmlns="http://www.w3.org/2000/svg" xmlns:xlink="http://www.w3.org/1999/xlink" xml:space="preserve" overflow="hidden"><g transform="translate(-1804 -2389)"><path d="M0 22.8336C0 10.223 10.223-4.11382e-15 22.8336-8.22764e-15L494.166 0C506.777-4.11382e-15 517 10.223 517 22.8336L517 114.167C517 126.777 506.777 137 494.166 137L22.8336 137C10.223 137 0 126.777 0 114.167Z" stroke="#909090" stroke-width="6.875" stroke-miterlimit="8" fill="#DEDEDE" fill-rule="evenodd" transform="matrix(-1 0 0 1 3177.5 2655.5)"/><text font-family="Times New Roman,Times New Roman_MSFontService,sans-serif" font-weight="400" font-size="83" transform="matrix(1 0 0 1 2750.24 2752)">1</text><text font-family="DengXian,DengXian_MSFontService,sans-serif" font-weight="400" font-size="83" transform="matrix(1 0 0 1 2791.49 2752)">×</text><text font-family="Times New Roman,Times New Roman_MSFontService,sans-serif" font-weight="400" font-size="83" transform="matrix(1 0 0 1 2846.49 2752)">1 Conv</text><path d="M0 22.8336C0 10.223 10.223-4.11382e-15 22.8336-8.22764e-15L494.166 0C506.777-4.11382e-15 517 10.223 517 22.8336L517 114.167C517 126.777 506.777 137 494.166 137L22.8336 137C10.223 137 0 126.777 0 114.167Z" stroke="#ECE390" stroke-width="6.875" stroke-miterlimit="8" fill="#FCF2CC" fill-rule="evenodd" transform="matrix(-1 0 0 1 3177.5 2838.5)"/><text font-family="Times New Roman,Times New Roman_MSFontService,sans-serif" font-weight="400" font-size="83" transform="matrix(1 0 0 1 2838.47 2937)">Gelu</text><path d="M0 22.8336C0 10.223 10.223-4.11382e-15 22.8336-8.22764e-15L494.166 0C506.777-4.11382e-15 517 10.223 517 22.8336L517 114.167C517 126.777 506.777 137 494.166 137L22.8336 137C10.223 137 0 126.777 0 114.167Z" stroke="#909090" stroke-width="6.875" stroke-miterlimit="8" fill="#DEDEDE" fill-rule="evenodd" transform="matrix(-1 0 0 1 3177.5 3204.5)"/><text font-family="Times New Roman,Times New Roman_MSFontService,sans-serif" font-weight="400" font-size="83" transform="matrix(1 0 0 1 2750.24 3301)">1</text><text font-family="DengXian,DengXian_MSFontService,sans-serif" font-weight="400" font-size="83" transform="matrix(1 0 0 1 2791.49 3301)">×</text><text font-family="Times New Roman,Times New Roman_MSFontService,sans-serif" font-weight="400" font-size="83" transform="matrix(1 0 0 1 2846.49 3301)">1 Conv</text><path d="M3.4375-2.66145e-05 3.43765 19.1125-3.43735 19.1125-3.4375 2.66145e-05ZM0.000147977 19.1125 22.9167 0.778986 0.000360892 46.6125-22.9167 0.779341Z" fill="#747474" transform="matrix(-1 0 0 1 2919.5 2792.5)"/><path d="M3.4375-2.66145e-05 3.43765 19.1125-3.43735 19.1125-3.4375 2.66145e-05ZM0.000147977 19.1125 22.9167 0.778986 0.000360892 46.6125-22.9167 0.779341Z" fill="#747474" transform="matrix(-1 0 0 1 2919.5 2975.5)"/><path d="M3.4375-2.66147e-05 3.43765 19.1121-3.43735 19.1122-3.4375 2.66147e-05ZM0.000147975 19.1121 22.9167 0.778625 0.000360892 46.6121-22.9167 0.778981Z" fill="#747474" transform="matrix(-1 0 0 1 2919.5 3158.5)"/><path d="M0 22.8337C0 10.223 10.223-4.11383e-15 22.8336-8.22765e-15L494.166 0C506.777-4.11383e-15 517 10.223 517 22.8337L517 114.167C517 126.777 506.777 137 494.166 137L22.8336 137C10.223 137 0 126.777 0 114.167Z" stroke="#EE9964" stroke-width="6.875" stroke-miterlimit="8" fill="#F6C6AD" fill-rule="evenodd" transform="matrix(-1 0 0 1 3177.5 3021.5)"/><text font-family="Times New Roman,Times New Roman_MSFontService,sans-serif" font-weight="400" font-size="83" transform="matrix(1 0 0 1 2703.11 3120)">MSTA Layer</text><path d="M0 64.9784C-1.20152e-14 29.0918 29.0918-2.40304e-14 64.9784-2.40304e-14L499.021 0C534.908-2.40304e-14 564 29.0918 564 64.9784L564 690.021C564 725.908 534.908 755 499.021 755L64.9784 755C29.0918 755 0 725.908 0 690.021Z" stroke="#A6A6A6" stroke-width="6.875" stroke-linejoin="round" stroke-miterlimit="10" stroke-dasharray="27.5 20.625" fill="none" fill-rule="evenodd" transform="matrix(-1 0 0 1 3203.5 2623.5)"/><path d="M0 22.8337C0 10.223 10.223-4.11383e-15 22.8336-8.22765e-15L494.166 0C506.777-4.11383e-15 517 10.223 517 22.8337L517 114.167C517 126.777 506.777 137 494.166 137L22.8336 137C10.223 137 0 126.777 0 114.167Z" stroke="#909090" stroke-width="6.875" stroke-miterlimit="8" fill="#DEDEDE" fill-rule="evenodd" transform="matrix(-1 0 0 1 3177.5 3427.5)"/><text font-family="Times New Roman,Times New Roman_MSFontService,sans-serif" font-weight="400" font-size="83" transform="matrix(1 0 0 1 2750.24 3524)">1</text><text font-family="DengXian,DengXian_MSFontService,sans-serif" font-weight="400" font-size="83" transform="matrix(1 0 0 1 2791.49 3524)">×</text><text font-family="Times New Roman,Times New Roman_MSFontService,sans-serif" font-weight="400" font-size="83" transform="matrix(1 0 0 1 2846.49 3524)">1 Conv</text><path d="M0 22.6669C-4.11381e-15 10.1483 10.1483-4.11382e-15 22.6668-8.22765e-15L494.333 0C506.852-4.11382e-15 517 10.1483 517 22.6669L517 113.333C517 125.852 506.852 136 494.333 136L22.6668 136C10.1483 136 0 125.852 0 113.333Z" stroke="#909090" stroke-width="6.875" stroke-miterlimit="8" fill="#DEDEDE" fill-rule="evenodd" transform="matrix(-1 0 0 1 3177.5 3977.5)"/><text font-family="Times New Roman,Times New Roman_MSFontService,sans-serif" font-weight="400" font-size="83" transform="matrix(1 0 0 1 2750.24 4073)">1</text><text font-family="DengXian,DengXian_MSFontService,sans-serif" font-weight="400" font-size="83" transform="matrix(1 0 0 1 2791.49 4073)">×</text><text font-family="Times New Roman,Times New Roman_MSFontService,sans-serif" font-weight="400" font-size="83" transform="matrix(1 0 0 1 2846.49 4073)">1 Conv</text><path d="M3.4375-2.66145e-05 3.43765 19.1125-3.43735 19.1125-3.4375 2.66145e-05ZM0.000147977 19.1125 22.9167 0.778986 0.000360892 46.6125-22.9167 0.779341Z" fill="#747474" transform="matrix(-1 0 0 1 2919.5 3564.5)"/><path d="M3.4375-2.66145e-05 3.43765 19.1125-3.43735 19.1125-3.4375 2.66145e-05ZM0.000147977 19.1125 22.9167 0.778986 0.000360892 46.6125-22.9167 0.779341Z" fill="#747474" transform="matrix(-1 0 0 1 2919.5 3747.5)"/><path d="M3.4375-2.66147e-05 3.43765 19.1121-3.43735 19.1122-3.4375 2.66147e-05ZM0.000147975 19.1121 22.9167 0.778625 0.000360892 46.6121-22.9167 0.778981Z" fill="#747474" transform="matrix(-1 0 0 1 2919.5 3930.5)"/><path d="M0 22.8337C0 10.223 10.223-4.11383e-15 22.8336-8.22765e-15L494.166 0C506.777-4.11383e-15 517 10.223 517 22.8337L517 114.167C517 126.777 506.777 137 494.166 137L22.8336 137C10.223 137 0 126.777 0 114.167Z" stroke="#ECE390" stroke-width="6.875" stroke-miterlimit="8" fill="#FCF2CC" fill-rule="evenodd" transform="matrix(-1 0 0 1 3177.5 3793.5)"/><text font-family="Times New Roman,Times New Roman_MSFontService,sans-serif" font-weight="400" font-size="83" transform="matrix(1 0 0 1 2838.47 3892)">Gelu</text><path d="M0 22.8336C0 10.223 10.223-4.11382e-15 22.8336-8.22764e-15L494.166 0C506.777-4.11382e-15 517 10.223 517 22.8336L517 114.167C517 126.777 506.777 137 494.166 137L22.8336 137C10.223 137 0 126.777 0 114.167Z" stroke="#B395D1" stroke-width="6.875" stroke-miterlimit="8" fill="#E6D1EB" fill-rule="evenodd" transform="matrix(-1 0 0 1 3177.5 3610.5)"/><text font-family="Times New Roman,Times New Roman_MSFontService,sans-serif" font-weight="400" font-size="83" transform="matrix(1 0 0 1 2770.86 3707)">3</text><text font-family="DengXian,DengXian_MSFontService,sans-serif" font-weight="400" font-size="83" transform="matrix(1 0 0 1 2812.11 3707)">×</text><text font-family="Times New Roman,Times New Roman_MSFontService,sans-serif" font-weight="400" font-size="83" transform="matrix(1 0 0 1 2867.11 3707)">3 DW</text><path d="M0 64.9784C-1.20152e-14 29.0918 29.0918-2.40304e-14 64.9784-2.40304e-14L499.021 0C534.908-2.40304e-14 564 29.0918 564 64.9784L564 690.021C564 725.908 534.908 755 499.021 755L64.9784 755C29.0918 755 0 725.908 0 690.021Z" stroke="#A6A6A6" stroke-width="6.875" stroke-linejoin="round" stroke-miterlimit="10" stroke-dasharray="27.5 20.625" fill="none" fill-rule="evenodd" transform="matrix(-1 0 0 1 3203.5 3398.5)"/><path d="M3.4375-1.03724e-05 3.43778 92.1026-3.43722 92.1026-3.4375 1.03724e-05ZM0.000277913 92.1026 22.9169 73.7692 0.000360892 119.603-22.9164 73.7694Z" fill="#747474" transform="matrix(-1 0 0 1 2179.5 2545.5)"/><path d="M0 29.8342C-4.28091e-15 13.3572 13.3572-4.28092e-15 29.8342-8.56184e-15L508.166 0C524.643-8.56184e-15 538 13.3572 538 29.8342L538 149.166C538 165.643 524.643 179 508.166 179L29.8342 179C13.3572 179 0 165.643 0 149.166Z" stroke="#E2C68A" stroke-width="6.875" stroke-miterlimit="8" fill="#FBE7CF" fill-rule="evenodd" transform="matrix(-1 0 0 1 2448.5 3437.5)"/><text font-family="Times New Roman,Times New Roman_MSFontService,sans-serif" font-weight="400" font-size="83" transform="matrix(1 0 0 1 1986.47 3557)">BatchNorm</text><path d="M0 29.8342C-4.28091e-15 13.3572 13.3572-4.28092e-15 29.8342-8.56184e-15L508.166 0C524.643-8.56184e-15 538 13.3572 538 29.8342L538 149.166C538 165.643 524.643 179 508.166 179L29.8342 179C13.3572 179 0 165.643 0 149.166Z" stroke="#E2C68A" stroke-width="6.875" stroke-miterlimit="8" fill="#FBE7CF" fill-rule="evenodd" transform="matrix(-1 0 0 1 2448.5 2665.5)"/><text font-family="Times New Roman,Times New Roman_MSFontService,sans-serif" font-weight="400" font-size="83" transform="matrix(1 0 0 1 1986.47 2785)">BatchNorm</text><path d="M0 29.8342C-4.28091e-15 13.3572 13.3572-4.28092e-15 29.8342-8.56184e-15L508.166 0C524.643-8.56184e-15 538 13.3572 538 29.8342L538 149.166C538 165.643 524.643 179 508.166 179L29.8342 179C13.3572 179 0 165.643 0 149.166Z" stroke="#4B89E3" stroke-width="6.875" stroke-miterlimit="8" fill="#DDE8FA" fill-rule="evenodd" transform="matrix(-1 0 0 1 2448.5 2922.5)"/><text font-family="Times New Roman,Times New Roman_MSFontService,sans-serif" font-weight="400" font-size="83" transform="matrix(1 0 0 1 2023.14 3042)">Attention</text><path d="M0 51.9999C-6.87492e-15 23.2811 24.1766-6.62028e-15 54-1.32406e-14 83.8233-2.64811e-14 108 23.2811 108 51.9999 108 80.7187 83.8233 104 54 104 24.1766 104-3.43746e-14 80.7187 0 51.9999Z" fill="#747474" fill-rule="evenodd" transform="matrix(-1 0 0 1 2233 3182)"/><text fill="#FFFFFF" font-family="Times New Roman,Times New Roman_MSFontService,sans-serif" font-weight="400" font-size="110" transform="matrix(1 0 0 1 2148.03 3274)">+</text><path d="M3.4375-1.58968e-05 3.43773 50.5386-3.43727 50.5387-3.4375 1.58968e-05ZM0.000233718 50.5386 22.9168 32.2052 0.000360892 78.0387-22.9165 32.2054Z" fill="#747474" transform="matrix(-1 0 0 1 2179.5 2844.5)"/><path d="M3.4375-1.52977e-05 3.43774 53.595-3.43726 53.5951-3.4375 1.52977e-05ZM0.000238511 53.595 22.9168 35.2616 0.000360892 81.095-22.9165 35.2618Z" fill="#747474" transform="matrix(-1 0 0 1 2179.5 3101.5)"/><path d="M3.4375-8.25193e-06 3.43779 122.837-3.43721 122.837-3.4375 8.25193e-06ZM0.000294877 122.837 22.9169 104.503 0.000360892 150.337-22.9164 104.503Z" fill="#747474" transform="matrix(-1 0 0 1 2179.5 3286.5)"/><path d="M0 29.8342C-4.28091e-15 13.3572 13.3572-4.28091e-15 29.8342-8.56182e-15L508.166 0C524.643-8.56182e-15 538 13.3572 538 29.8342L538 149.166C538 165.643 524.643 179 508.166 179L29.8342 179C13.3572 179 0 165.643 0 149.166Z" stroke="#94B779" stroke-width="6.875" stroke-miterlimit="8" fill="#D9E7D6" fill-rule="evenodd" transform="matrix(-1 0 0 1 2448.5 3694.5)"/><text font-family="Times New Roman,Times New Roman_MSFontService,sans-serif" font-weight="400" font-size="83" transform="matrix(1 0 0 1 2025.43 3814)">MixMLP</text><path d="M3.4375-1.58968e-05 3.43773 50.5386-3.43727 50.5387-3.4375 1.58968e-05ZM0.000233718 50.5386 22.9168 32.2052 0.000360892 78.0387-22.9165 32.2054Z" fill="#747474" transform="matrix(-1 0 0 1 2179.5 3616.5)"/><path d="M0 52.0001C-6.87492e-15 23.2812 24.1766-6.6203e-15 54-1.32406e-14 83.8233-2.64812e-14 108 23.2812 108 52.0001 108 80.7189 83.8233 104 54 104 24.1766 104-3.43746e-14 80.7189 0 52.0001Z" fill="#747474" fill-rule="evenodd" transform="matrix(-1 0 0 1 2233 3992)"/><text fill="#FFFFFF" font-family="Times New Roman,Times New Roman_MSFontService,sans-serif" font-weight="400" font-size="110" transform="matrix(1 0 0 1 2148.03 4084)">+</text><path d="M2182.94 3873.5 2182.94 3964.93 2176.06 3964.93 2176.06 3873.5ZM2179.5 3964.93 2202.42 3946.6 2179.5 3992.43 2156.58 3946.6Z" fill="#747474"/><path d="M0 82.8356C-1.28348e-14 37.0868 37.0868-2.56696e-14 82.8358-2.56696e-14L636.164 0C681.913-1.28348e-14 719 37.0868 719 82.8356L719 1530.16C719 1575.91 681.913 1613 636.164 1613L82.8358 1613C37.0868 1613-1.28348e-14 1575.91 0 1530.16Z" stroke="#A6A6A6" stroke-width="6.875" stroke-linejoin="round" stroke-miterlimit="10" stroke-dasharray="27.5 20.625" fill="none" fill-rule="evenodd" transform="matrix(-1 0 0 1 2526.5 2576.5)"/><path d="M-27.5 3.4375-266.189 3.4375-262.751 0-262.751 626.189-266.189 622.751 57.4108 622.751 57.4108 628.413 50.5358 628.413 50.5358 626.189 53.9733 629.626-269.626 629.626-269.626-3.4375-27.5-3.4375ZM-27.5 0-45.8333-22.9167 0 0-45.8333 22.9167Z" fill="#747474" transform="matrix(1 0 0 -1 2125.5 3234.91)"/><path d="M-27.4998 3.4375-266.191 3.4375-262.753 0-262.753 689.151-266.191 685.713 53.974 685.713 50.5365 689.151 50.5365 626.734 57.4115 626.734 57.4115 692.588-269.628 692.588-269.628-3.4375-27.4998-3.4375ZM-27.5 0-45.8333-22.9167 0 0-45.8333 22.9167Z" fill="#747474" transform="matrix(1 0 0 -1 2125.5 4044.23)"/><path d="M3.4375-8.25193e-06 3.43779 122.837-3.43721 122.837-3.4375 8.25193e-06ZM0.000294877 122.837 22.9169 104.503 0.000360892 150.337-22.9164 104.503Z" fill="#747474" transform="matrix(-1 0 0 1 2179.5 4096.5)"/><path d="M0 18.75 77.5002 18.75 77.5002 0 115 37.5 77.5002 74.9999 77.5002 56.25 0 56.25Z" stroke="#4B89E3" stroke-width="6.875" stroke-miterlimit="8" fill="#DDE8FA" fill-rule="evenodd" transform="matrix(-1 0 0 1 2601.5 2966.5)"/><path d="M0 19.0001 77.0002 19.0001 77.0002 0 115 38 77.0002 76 77.0002 57 0 57Z" stroke="#94B779" stroke-width="6.875" stroke-miterlimit="8" fill="#D9E7D6" fill-rule="evenodd" transform="matrix(-1 0 0 1 2601.5 3738.5)"/><text font-family="DengXian,DengXian_MSFontService,sans-serif" font-weight="400" font-size="83" transform="matrix(1 0 0 1 2342.37 4156)">×</text><text font-family="Times New Roman,Times New Roman_MSFontService,sans-serif" font-weight="400" font-size="83" transform="matrix(1 0 0 1 2397.37 4156)">N</text><text font-family="Times New Roman,Times New Roman_MSFontService,sans-serif" font-weight="400" font-size="83" transform="matrix(1 0 0 1 1961.11 2495)">MSTA Block</text></g></svg>