<svg width="1753" height="1643" xmlns="http://www.w3.org/2000/svg" xmlns:xlink="http://www.w3.org/1999/xlink" xml:space="preserve" overflow="hidden"><g transform="translate(-2951 -582)"><path d="M4301 1754C4301 1725.28 4324.28 1702 4353 1702 4381.72 1702 4405 1725.28 4405 1754 4405 1782.72 4381.72 1806 4353 1806 4324.28 1806 4301 1782.72 4301 1754Z" fill="#747474" fill-rule="evenodd"/><text font-family="Times New Roman,Times New Roman_MSFontService,sans-serif" font-weight="400" font-size="83" transform="matrix(1 0 0 1 3830.17 687)">Channel Attention</text><text font-family="Times New Roman,Times New Roman_MSFontService,sans-serif" font-weight="400" font-size="83" transform="matrix(1 0 0 1 3806.29 786)">(Temporal/ Variant)</text><path d="M2978.5 948.334C2978.5 931.857 2991.86 918.5 3008.33 918.5L3466.67 918.5C3483.14 918.5 3496.5 931.857 3496.5 948.334L3496.5 1067.67C3496.5 1084.14 3483.14 1097.5 3466.67 1097.5L3008.33 1097.5C2991.86 1097.5 2978.5 1084.14 2978.5 1067.67Z" stroke="#94B779" stroke-width="6.875" stroke-miterlimit="8" fill="#D9E7D6" fill-rule="evenodd"/><text font-family="Times New Roman,Times New Roman_MSFontService,sans-serif" font-weight="400" font-size="83" transform="matrix(1 0 0 1 3069.61 1038)">DW Conv</text><path d="M3536.5 951.5C3536.5 934.932 3549.93 921.5 3566.5 921.5L4024.5 921.5C4041.07 921.5 4054.5 934.932 4054.5 951.5L4054.5 1071.5C4054.5 1088.07 4041.07 1101.5 4024.5 1101.5L3566.5 1101.5C3549.93 1101.5 3536.5 1088.07 3536.5 1071.5Z" stroke="#4B89E3" stroke-width="6.875" stroke-miterlimit="8" fill="#DDE8FA" fill-rule="evenodd"/><text font-family="Times New Roman,Times New Roman_MSFontService,sans-serif" font-style="italic" font-weight="400" font-size="83" transform="matrix(1 0 0 1 3608.82 1041)">W</text><text font-family="Times New Roman,Times New Roman_MSFontService,sans-serif" font-weight="400" font-size="83" transform="matrix(1 0 0 1 3693.64 1041)">AvgPool</text><path d="M3536.5 1203.33C3536.5 1186.86 3549.86 1173.5 3566.33 1173.5L4581.67 1173.5C4598.14 1173.5 4611.5 1186.86 4611.5 1203.33L4611.5 1322.67C4611.5 1339.14 4598.14 1352.5 4581.67 1352.5L3566.33 1352.5C3549.86 1352.5 3536.5 1339.14 3536.5 1322.67Z" stroke="#EE9964" stroke-width="6.875" stroke-miterlimit="8" fill="#F6C6AD" fill-rule="evenodd"/><text font-family="Times New Roman,Times New Roman_MSFontService,sans-serif" font-weight="400" font-size="83" transform="matrix(1 0 0 1 3923.5 1293)">1D Conv</text><path d="M3536.5 1454.5C3536.5 1437.93 3549.93 1424.5 3566.5 1424.5L4024.5 1424.5C4041.07 1424.5 4054.5 1437.93 4054.5 1454.5L4054.5 1574.5C4054.5 1591.07 4041.07 1604.5 4024.5 1604.5L3566.5 1604.5C3549.93 1604.5 3536.5 1591.07 3536.5 1574.5Z" stroke="#4B89E3" stroke-width="6.875" stroke-miterlimit="8" fill="#DDE8FA" fill-rule="evenodd"/><text font-family="Times New Roman,Times New Roman_MSFontService,sans-serif" font-weight="400" font-size="83" transform="matrix(1 0 0 1 3592.78 1544)">1D </text><text font-family="Times New Roman,Times New Roman_MSFontService,sans-serif" font-weight="400" font-size="83" transform="matrix(1 0 0 1 3709.68 1544)">AvgPool</text><path d="M2978.5 1454.5C2978.5 1437.93 2991.93 1424.5 3008.5 1424.5L3466.5 1424.5C3483.07 1424.5 3496.5 1437.93 3496.5 1454.5L3496.5 1574.5C3496.5 1591.07 3483.07 1604.5 3466.5 1604.5L3008.5 1604.5C2991.93 1604.5 2978.5 1591.07 2978.5 1574.5Z" stroke="#94B779" stroke-width="6.875" stroke-miterlimit="8" fill="#D9E7D6" fill-rule="evenodd"/><text font-family="Times New Roman,Times New Roman_MSFontService,sans-serif" font-weight="400" font-size="83" transform="matrix(1 0 0 1 3068.86 1542)">1</text><text font-family="DengXian,DengXian_MSFontService,sans-serif" font-weight="400" font-size="83" transform="matrix(1 0 0 1 3110.11 1542)">×</text><text font-family="Times New Roman,Times New Roman_MSFontService,sans-serif" font-weight="400" font-size="83" transform="matrix(1 0 0 1 3165.11 1542)">1 Conv</text><path d="M2978.5 1203.33C2978.5 1186.86 2991.86 1173.5 3008.33 1173.5L3466.67 1173.5C3483.14 1173.5 3496.5 1186.86 3496.5 1203.33L3496.5 1322.67C3496.5 1339.14 3483.14 1352.5 3466.67 1352.5L3008.33 1352.5C2991.86 1352.5 2978.5 1339.14 2978.5 1322.67Z" stroke="#94B779" stroke-width="6.875" stroke-miterlimit="8" fill="#D9E7D6" fill-rule="evenodd"/><text font-family="Times New Roman,Times New Roman_MSFontService,sans-serif" font-weight="400" font-size="83" transform="matrix(1 0 0 1 3027.6 1293)">DW</text><text font-family="Times New Roman,Times New Roman_MSFontService,sans-serif" font-weight="400" font-size="83" transform="matrix(1 0 0 1 3160.54 1293)">-</text><text font-family="Times New Roman,Times New Roman_MSFontService,sans-serif" font-weight="400" font-size="83" transform="matrix(1 0 0 1 3188.04 1293)">D Conv</text><path d="M3796.36 1098.17 4048.5 1163.14 4046.78 1169.8 3794.64 1104.83ZM4047.64 1166.47 4035.6 1139.71 4074.27 1173.33 4024.17 1184.09Z" fill="#4B89E3"/><path d="M0.857776-3.32876 252.996 61.6439 251.281 68.3014-0.857776 3.32876ZM252.138 64.9727 240.104 38.2062 278.768 71.8349 228.666 82.5896Z" fill="#4B89E3" transform="matrix(-1 0 0 1 4074.27 1352.5)"/><path d="M3.4375-1.64912e-05 3.43773 47.7262-3.43727 47.7262-3.4375 1.64912e-05ZM0.000228963 47.7262 22.9168 29.3928 0.000360892 75.2262-22.9165 29.393Z" fill="#94B779" transform="matrix(-1 0 0 1 3237.5 1097.5)"/><path d="M3240.94 1352.5 3240.94 1396.83 3234.06 1396.83 3234.06 1352.5ZM3237.5 1396.83 3260.42 1378.5 3237.5 1424.33 3214.58 1378.5Z" fill="#94B779"/><path d="M0-3.4375 301.729-3.4375 301.729 478.318 294.854 478.318 294.854 0 298.291 3.4375 0 3.4375ZM298.291 478.317 321.208 459.984 298.291 505.817 275.375 459.984Z" fill="#94B779" transform="matrix(1.83697e-16 1 1 -1.83697e-16 3237.5 1604.5)"/><path d="M3874.78 2046.51 4699.78 2046.51 4696.34 2049.95 4696.34 824.305 4699.78 827.743 3788.06 827.743 3788.06 680.5 3794.94 680.5 3794.94 824.305 3791.5 820.868 4703.21 820.868 4703.21 2053.38 3874.78 2053.38ZM3874.78 2049.95 3893.11 2072.86 3847.28 2049.95 3893.11 2027.03Z" fill="#747474"/><path d="M4093.5 957.5C4093.5 940.932 4106.93 927.5 4123.5 927.5L4581.5 927.5C4598.07 927.5 4611.5 940.932 4611.5 957.5L4611.5 1077.5C4611.5 1094.07 4598.07 1107.5 4581.5 1107.5L4123.5 1107.5C4106.93 1107.5 4093.5 1094.07 4093.5 1077.5Z" stroke="#B4A3C3" stroke-width="6.875" stroke-miterlimit="8" fill="#DFD5E6" fill-rule="evenodd"/><text font-family="Times New Roman,Times New Roman_MSFontService,sans-serif" font-style="italic" font-weight="400" font-size="83" transform="matrix(1 0 0 1 4170.94 1048)">H</text><text font-family="Times New Roman,Times New Roman_MSFontService,sans-serif" font-weight="400" font-size="83" transform="matrix(1 0 0 1 4246.59 1048)">AvgPool</text><path d="M4093.5 1454.5C4093.5 1437.93 4106.93 1424.5 4123.5 1424.5L4581.5 1424.5C4598.07 1424.5 4611.5 1437.93 4611.5 1454.5L4611.5 1574.5C4611.5 1591.07 4598.07 1604.5 4581.5 1604.5L4123.5 1604.5C4106.93 1604.5 4093.5 1591.07 4093.5 1574.5Z" stroke="#B4A3C3" stroke-width="6.875" stroke-miterlimit="8" fill="#DFD5E6" fill-rule="evenodd"/><text font-family="Times New Roman,Times New Roman_MSFontService,sans-serif" font-weight="400" font-size="83" transform="matrix(1 0 0 1 4150.32 1544)">1D </text><text font-family="Times New Roman,Times New Roman_MSFontService,sans-serif" font-weight="400" font-size="83" transform="matrix(1 0 0 1 4267.22 1544)">AvgPool</text><path d="M0.788106-3.34594 252.789 56.0107 251.213 62.7026-0.788106 3.34594ZM252.001 59.3566 239.41 32.8471 278.768 65.6615 228.902 77.4596Z" fill="#B4A3C3" transform="matrix(-1 0 0 1 4353.27 1107.5)"/><path d="M4075.36 1349.17 4327.5 1414.14 4325.78 1420.8 4073.64 1355.83ZM4326.64 1417.47 4314.6 1390.71 4353.27 1424.33 4303.17 1435.09Z" fill="#B4A3C3"/><path d="M3.4375-1.25757e-05 3.43776 71.1481-3.43724 71.1481-3.4375 1.25757e-05ZM0.000260287 71.1481 22.9169 52.8147 0.000360892 98.6481-22.9165 52.8149Z" fill="#4B89E3" transform="matrix(-1 0 0 1 3795.5 1604.5)"/><path d="M3743 1902C3743 1873.28 3766.28 1850 3795 1850 3823.72 1850 3847 1873.28 3847 1902 3847 1930.72 3823.72 1954 3795 1954 3766.28 1954 3743 1930.72 3743 1902Z" fill="#747474" fill-rule="evenodd"/><text fill="#FFFFFF" font-family="DengXian,DengXian_MSFontService,sans-serif" font-weight="700" font-size="110" transform="matrix(1 0 0 1 3756.99 1939)">×</text><path d="M3794.94 650.482 3796.21 894.156 3789.34 894.192 3788.06 650.518ZM3792.78 894.174 3815.6 875.721 3792.92 921.674 3769.76 875.961Z" fill="#747474"/><path d="M27.5-3.4375 106.94-3.4375 106.94 555.149 100.065 555.149 100.065 0 103.502 3.4375 27.5 3.4375ZM27.5 0 45.8333 22.9167 0 0 45.8333-22.9167Z" fill="#747474" transform="matrix(-1.83697e-16 -1 -1 1.83697e-16 4352.65 928.003)"/><path d="M3234.06 890.939 3234.06 821.063 3797.42 821.063 3797.42 827.938 3237.5 827.938 3240.94 824.5 3240.94 890.939ZM3237.5 890.939 3260.42 872.605 3237.5 918.439 3214.58 872.605Z" fill="#747474"/><text font-family="Times New Roman,Times New Roman_MSFontService,sans-serif" font-weight="400" font-size="83" transform="matrix(1 0 0 1 3116.6 687)">Spatia</text><text font-family="Times New Roman,Times New Roman_MSFontService,sans-serif" font-weight="400" font-size="83" transform="matrix(1 0 0 1 3322.85 687)">l</text><text font-family="Times New Roman,Times New Roman_MSFontService,sans-serif" font-weight="400" font-size="83" transform="matrix(1 0 0 1 3075.35 786)">Attentio</text><text font-family="Times New Roman,Times New Roman_MSFontService,sans-serif" font-weight="400" font-size="83" transform="matrix(1 0 0 1 3345.77 786)">n</text><path d="M2954.5 902.037C2954.5 876.336 2975.34 855.5 3001.04 855.5L3463.96 855.5C3489.66 855.5 3510.5 876.336 3510.5 902.037L3510.5 1582.96C3510.5 1608.66 3489.66 1629.5 3463.96 1629.5L3001.04 1629.5C2975.34 1629.5 2954.5 1608.66 2954.5 1582.96Z" stroke="#0B76A0" stroke-width="6.875" stroke-miterlimit="8" stroke-dasharray="27.5 20.625" fill="none" fill-rule="evenodd"/><path d="M3521.5 910.571C3521.5 880.156 3546.16 855.5 3576.57 855.5L4579.43 855.5C4609.84 855.5 4634.5 880.156 4634.5 910.571L4634.5 1574.43C4634.5 1604.84 4609.84 1629.5 4579.43 1629.5L3576.57 1629.5C3546.16 1629.5 3521.5 1604.84 3521.5 1574.43Z" stroke="#0B76A0" stroke-width="6.875" stroke-miterlimit="8" stroke-dasharray="27.5 20.625" fill="none" fill-rule="evenodd"/><path d="M3847.5 1751.06 3995.21 1751.06 3995.21 1757.94 3847.5 1757.94ZM3995.21 1754.5 3976.88 1731.58 4022.71 1754.5 3976.88 1777.42Z" fill="#4B89E3"/><path d="M4355.94 1604.47 4356.49 1675.62 4349.61 1675.68 4349.06 1604.53ZM4353.05 1675.65 4375.83 1657.14 4353.27 1703.15 4329.99 1657.49Z" fill="#B4A3C3"/><path d="M3743 1754C3743 1725.28 3766.28 1702 3795 1702 3823.72 1702 3847 1725.28 3847 1754 3847 1782.72 3823.72 1806 3795 1806 3766.28 1806 3743 1782.72 3743 1754Z" fill="#747474" fill-rule="evenodd"/><text fill="#FFFFFF" font-family="Aptos,Aptos_MSFontService,sans-serif" font-style="italic" font-weight="400" font-size="110" transform="matrix(1 0 0 1 4318.92 1784)">σ</text><text fill="#FFFFFF" font-family="Aptos,Aptos_MSFontService,sans-serif" font-style="italic" font-weight="400" font-size="110" transform="matrix(1 0 0 1 3760.09 1784)">σ</text><path d="M3743 2050C3743 2021.28 3766.28 1998 3795 1998 3823.72 1998 3847 2021.28 3847 2050 3847 2078.72 3823.72 2102 3795 2102 3766.28 2102 3743 2078.72 3743 2050Z" fill="#747474" fill-rule="evenodd"/><text fill="#FFFFFF" font-family="Times New Roman,Times New Roman_MSFontService,sans-serif" font-weight="700" font-size="110" transform="matrix(1 0 0 1 3776.51 2090)">·</text><path d="M3.43744-0.0195711 3.52989 16.2178-3.345 16.2569-3.43744 0.0195711ZM0.0924473 16.2374 22.9044-2.22616 0.249016 43.7369-22.9282-1.96521Z" fill="#747474" transform="matrix(-1 0 0 1 3795.75 1954.5)"/><path d="M3798.94 2102.5 3798.94 2150.68 3792.06 2150.68 3792.06 2102.5ZM3795.5 2150.68 3818.42 2132.35 3795.5 2178.18 3772.58 2132.35Z" fill="#747474"/><path d="M4022 1754C4022 1725.28 4045.28 1702 4074 1702 4102.72 1702 4126 1725.28 4126 1754 4126 1782.72 4102.72 1806 4074 1806 4045.28 1806 4022 1782.72 4022 1754Z" fill="#747474" fill-rule="evenodd"/><text fill="#FFFFFF" font-family="Times New Roman,Times New Roman_MSFontService,sans-serif" font-weight="700" font-size="110" transform="matrix(1 0 0 1 4055.66 1794)">·</text><path d="M4077.87 1806.5 4077.87 1905.64 3875 1905.64 3875 1898.77 4074.43 1898.77 4071 1902.21 4071 1806.5ZM3875 1902.21 3893.33 1925.12 3847.5 1902.21 3893.33 1879.29Z" fill="#ED9F41"/><path d="M7.08029e-06-3.4375 147.714-3.4372 147.714 3.4378-7.08029e-06 3.4375ZM147.714 0.00030425 129.381-22.9164 175.214 0.000360892 129.381 22.9169Z" fill="#B4A3C3" transform="matrix(-1 0 0 1 4301.71 1754.5)"/></g></svg>