<svg width="2845" height="1169" xmlns="http://www.w3.org/2000/svg" xmlns:xlink="http://www.w3.org/1999/xlink" xml:space="preserve" overflow="hidden"><g transform="translate(-1725 -3363)"><rect x="1993.5" y="3636.35" width="20.1522" height="684.152" fill="#F8F896"/><path d="M2013.65 3636.35 2275.5 3374.5 2275.5 4058.65 2013.65 4320.5Z" fill="#C7C779" fill-rule="evenodd"/><path d="M1993.5 3636.35 2255.35 3374.5 2275.5 3374.5 2013.65 3636.35Z" fill="#F9F9AB" fill-rule="evenodd"/><path d="M1993.5 3636.35 2255.35 3374.5 2275.5 3374.5 2275.5 4058.65 2013.65 4320.5 1993.5 4320.5ZM1993.5 3636.35 2013.65 3636.35 2275.5 3374.5M2013.65 3636.35 2013.65 4320.5" stroke="#FFFFFF" stroke-width="6.875" stroke-miterlimit="8" fill="none" fill-rule="evenodd"/><rect x="2055.5" y="3644.06" width="82.4353" height="676.435" fill="#B4E5A2"/><path d="M2137.94 3644.06 2406.5 3375.5 2406.5 4051.94 2137.94 4320.5Z" fill="#91B882" fill-rule="evenodd"/><path d="M2055.5 3644.06 2324.06 3375.5 2406.5 3375.5 2137.94 3644.06Z" fill="#C3EAB4" fill-rule="evenodd"/><path d="M2055.5 3644.06 2324.06 3375.5 2406.5 3375.5 2406.5 4051.94 2137.94 4320.5 2055.5 4320.5ZM2055.5 3644.06 2137.94 3644.06 2406.5 3375.5M2137.94 3644.06 2137.94 4320.5" stroke="#FFFFFF" stroke-width="6.875" stroke-miterlimit="8" fill="none" fill-rule="evenodd"/><rect x="2185.5" y="3779.89" width="75.6118" height="540.612" fill="#B4E5A2"/><path d="M2261.11 3779.89 2385.5 3655.5 2385.5 4196.11 2261.11 4320.5Z" fill="#91B882" fill-rule="evenodd"/><path d="M2185.5 3779.89 2309.89 3655.5 2385.5 3655.5 2261.11 3779.89Z" fill="#C3EAB4" fill-rule="evenodd"/><path d="M2185.5 3779.89 2309.89 3655.5 2385.5 3655.5 2385.5 4196.11 2261.11 4320.5 2185.5 4320.5ZM2185.5 3779.89 2261.11 3779.89 2385.5 3655.5M2261.11 3779.89 2261.11 4320.5" stroke="#FFFFFF" stroke-width="6.875" stroke-miterlimit="8" fill="none" fill-rule="evenodd"/><rect x="2307.5" y="3778.89" width="75.6121" height="541.612" fill="#B4E5A2"/><path d="M2383.11 3778.89 2507.5 3654.5 2507.5 4196.11 2383.11 4320.5Z" fill="#91B882" fill-rule="evenodd"/><path d="M2307.5 3778.89 2431.89 3654.5 2507.5 3654.5 2383.11 3778.89Z" fill="#C3EAB4" fill-rule="evenodd"/><path d="M2307.5 3778.89 2431.89 3654.5 2507.5 3654.5 2507.5 4196.11 2383.11 4320.5 2307.5 4320.5ZM2307.5 3778.89 2383.11 3778.89 2507.5 3654.5M2383.11 3778.89 2383.11 4320.5" stroke="#FFFFFF" stroke-width="6.875" stroke-miterlimit="8" fill="none" fill-rule="evenodd"/><rect x="2423.5" y="3958.38" width="69.1218" height="362.122" fill="#B4E5A2"/><path d="M2492.62 3958.38 2555.5 3895.5 2555.5 4257.62 2492.62 4320.5Z" fill="#91B882" fill-rule="evenodd"/><path d="M2423.5 3958.38 2486.38 3895.5 2555.5 3895.5 2492.62 3958.38Z" fill="#C3EAB4" fill-rule="evenodd"/><path d="M2423.5 3958.38 2486.38 3895.5 2555.5 3895.5 2555.5 4257.62 2492.62 4320.5 2423.5 4320.5ZM2423.5 3958.38 2492.62 3958.38 2555.5 3895.5M2492.62 3958.38 2492.62 4320.5" stroke="#FFFFFF" stroke-width="6.875" stroke-miterlimit="8" fill="none" fill-rule="evenodd"/><rect x="2629.5" y="3956.38" width="69.1218" height="362.122" fill="#96DCF8"/><path d="M2698.62 3956.38 2761.5 3893.5 2761.5 4255.62 2698.62 4318.5Z" fill="#79B1C7" fill-rule="evenodd"/><path d="M2629.5 3956.38 2692.38 3893.5 2761.5 3893.5 2698.62 3956.38Z" fill="#ABE3F9" fill-rule="evenodd"/><path d="M2629.5 3956.38 2692.38 3893.5 2761.5 3893.5 2761.5 4255.62 2698.62 4318.5 2629.5 4318.5ZM2629.5 3956.38 2698.62 3956.38 2761.5 3893.5M2698.62 3956.38 2698.62 4318.5" stroke="#FFFFFF" stroke-width="6.875" stroke-miterlimit="8" fill="none" fill-rule="evenodd"/><rect x="2737.5" y="3955.9" width="68.5981" height="362.598" fill="#96DCF8"/><path d="M2806.1 3955.9 2868.5 3893.5 2868.5 4256.1 2806.1 4318.5Z" fill="#79B1C7" fill-rule="evenodd"/><path d="M2737.5 3955.9 2799.9 3893.5 2868.5 3893.5 2806.1 3955.9Z" fill="#ABE3F9" fill-rule="evenodd"/><path d="M2737.5 3955.9 2799.9 3893.5 2868.5 3893.5 2868.5 4256.1 2806.1 4318.5 2737.5 4318.5ZM2737.5 3955.9 2806.1 3955.9 2868.5 3893.5M2806.1 3955.9 2806.1 4318.5" stroke="#FFFFFF" stroke-width="6.875" stroke-miterlimit="8" fill="none" fill-rule="evenodd"/><rect x="2959.5" y="3956.38" width="69.1216" height="363.121" fill="#96DCF8"/><path d="M3028.62 3956.38 3091.5 3893.5 3091.5 4256.62 3028.62 4319.5Z" fill="#79B1C7" fill-rule="evenodd"/><path d="M2959.5 3956.38 3022.38 3893.5 3091.5 3893.5 3028.62 3956.38Z" fill="#ABE3F9" fill-rule="evenodd"/><path d="M2959.5 3956.38 3022.38 3893.5 3091.5 3893.5 3091.5 4256.62 3028.62 4319.5 2959.5 4319.5ZM2959.5 3956.38 3028.62 3956.38 3091.5 3893.5M3028.62 3956.38 3028.62 4319.5" stroke="#FFFFFF" stroke-width="6.875" stroke-miterlimit="8" fill="none" fill-rule="evenodd"/><rect x="3067.5" y="3955.9" width="68.5981" height="363.598" fill="#96DCF8"/><path d="M3136.1 3955.9 3198.5 3893.5 3198.5 4257.1 3136.1 4319.5Z" fill="#79B1C7" fill-rule="evenodd"/><path d="M3067.5 3955.9 3129.9 3893.5 3198.5 3893.5 3136.1 3955.9Z" fill="#ABE3F9" fill-rule="evenodd"/><path d="M3067.5 3955.9 3129.9 3893.5 3198.5 3893.5 3198.5 4257.1 3136.1 4319.5 3067.5 4319.5ZM3067.5 3955.9 3136.1 3955.9 3198.5 3893.5M3136.1 3955.9 3136.1 4319.5" stroke="#FFFFFF" stroke-width="6.875" stroke-miterlimit="8" fill="none" fill-rule="evenodd"/><text font-family="Times New Roman,Times New Roman_MSFontService,sans-serif" font-weight="400" font-size="92" transform="matrix(1 0 0 1 2876.57 4118)">…</text><rect x="3273.5" y="3956.9" width="68.5981" height="363.598" fill="#B4E5A2"/><path d="M3342.1 3956.9 3404.5 3894.5 3404.5 4258.1 3342.1 4320.5Z" fill="#91B882" fill-rule="evenodd"/><path d="M3273.5 3956.9 3335.9 3894.5 3404.5 3894.5 3342.1 3956.9Z" fill="#C3EAB4" fill-rule="evenodd"/><path d="M3273.5 3956.9 3335.9 3894.5 3404.5 3894.5 3404.5 4258.1 3342.1 4320.5 3273.5 4320.5ZM3273.5 3956.9 3342.1 3956.9 3404.5 3894.5M3342.1 3956.9 3342.1 4320.5" stroke="#FFFFFF" stroke-width="6.875" stroke-miterlimit="8" fill="none" fill-rule="evenodd"/><rect x="3380.5" y="3779.51" width="75.99" height="540.99" fill="#B4E5A2"/><path d="M3456.49 3779.51 3581.5 3654.5 3581.5 4195.49 3456.49 4320.5Z" fill="#91B882" fill-rule="evenodd"/><path d="M3380.5 3779.51 3505.51 3654.5 3581.5 3654.5 3456.49 3779.51Z" fill="#C3EAB4" fill-rule="evenodd"/><path d="M3380.5 3779.51 3505.51 3654.5 3581.5 3654.5 3581.5 4195.49 3456.49 4320.5 3380.5 4320.5ZM3380.5 3779.51 3456.49 3779.51 3581.5 3654.5M3456.49 3779.51 3456.49 4320.5" stroke="#FFFFFF" stroke-width="6.875" stroke-miterlimit="8" fill="none" fill-rule="evenodd"/><rect x="3508.5" y="3780.51" width="75.99" height="539.99" fill="#B4E5A2"/><path d="M3584.49 3780.51 3709.5 3655.5 3709.5 4195.49 3584.49 4320.5Z" fill="#91B882" fill-rule="evenodd"/><path d="M3508.5 3780.51 3633.51 3655.5 3709.5 3655.5 3584.49 3780.51Z" fill="#C3EAB4" fill-rule="evenodd"/><path d="M3508.5 3780.51 3633.51 3655.5 3709.5 3655.5 3709.5 4195.49 3584.49 4320.5 3508.5 4320.5ZM3508.5 3780.51 3584.49 3780.51 3709.5 3655.5M3584.49 3780.51 3584.49 4320.5" stroke="#FFFFFF" stroke-width="6.875" stroke-miterlimit="8" fill="none" fill-rule="evenodd"/><rect x="3635.5" y="3643.06" width="82.4358" height="677.436" fill="#B4E5A2"/><path d="M3717.94 3643.06 3986.5 3374.5 3986.5 4051.94 3717.94 4320.5Z" fill="#91B882" fill-rule="evenodd"/><path d="M3635.5 3643.06 3904.06 3374.5 3986.5 3374.5 3717.94 3643.06Z" fill="#C3EAB4" fill-rule="evenodd"/><path d="M3635.5 3643.06 3904.06 3374.5 3986.5 3374.5 3986.5 4051.94 3717.94 4320.5 3635.5 4320.5ZM3635.5 3643.06 3717.94 3643.06 3986.5 3374.5M3717.94 3643.06 3717.94 4320.5" stroke="#FFFFFF" stroke-width="6.875" stroke-miterlimit="8" fill="none" fill-rule="evenodd"/><rect x="3768.5" y="3636.35" width="20.1521" height="684.152" fill="#F8F896"/><path d="M3788.65 3636.35 4050.5 3374.5 4050.5 4058.65 3788.65 4320.5Z" fill="#C7C779" fill-rule="evenodd"/><path d="M3768.5 3636.35 4030.35 3374.5 4050.5 3374.5 3788.65 3636.35Z" fill="#F9F9AB" fill-rule="evenodd"/><path d="M3768.5 3636.35 4030.35 3374.5 4050.5 3374.5 4050.5 4058.65 3788.65 4320.5 3768.5 4320.5ZM3768.5 3636.35 3788.65 3636.35 4050.5 3374.5M3788.65 3636.35 3788.65 4320.5" stroke="#FFFFFF" stroke-width="6.875" stroke-miterlimit="8" fill="none" fill-rule="evenodd"/><path d="M2821.5 4399.5C2821.5 4370.78 2844.78 4347.5 2873.5 4347.5 2902.22 4347.5 2925.5 4370.78 2925.5 4399.5 2925.5 4428.22 2902.22 4451.5 2873.5 4451.5 2844.78 4451.5 2821.5 4428.22 2821.5 4399.5Z" stroke="#FFFFFF" stroke-width="6.875" stroke-miterlimit="8" fill="#747474" fill-rule="evenodd"/><text fill="#FFFFFF" font-family="Times New Roman,Times New Roman_MSFontService,sans-serif" font-weight="400" font-size="110" transform="matrix(1 0 0 1 2841.75 4439)">+</text><path d="M2793.49 4402.91 2093.06 4402.91 2093.06 4320.5 2099.94 4320.5 2099.94 4399.47 2096.5 4396.03 2793.49 4396.03ZM2793.49 4399.47 2775.16 4376.55 2820.99 4399.47 2775.16 4422.39Z" fill="#747474"/><path d="M3680.76 4348 3680.76 4403.49 2925.5 4403.49 2925.5 4396.62 3677.33 4396.62 3673.89 4400.06 3673.89 4348ZM3677.33 4348 3654.41 4366.33 3677.33 4320.5 3700.24 4366.33Z" fill="#747474"/><text font-family="Times New Roman,Times New Roman_MSFontService,sans-serif" font-weight="400" font-size="83" transform="matrix(1 0 0 1 2434.67 3529)">Spatial </text><text font-family="Times New Roman,Times New Roman_MSFontService,sans-serif" font-weight="400" font-size="83" transform="matrix(1 0 0 1 2411.76 3628)">Encoder</text><text font-family="Times New Roman,Times New Roman_MSFontService,sans-serif" font-weight="400" font-size="83" transform="matrix(1 0 0 1 3383.62 3529)">Spatial </text><text font-family="Times New Roman,Times New Roman_MSFontService,sans-serif" font-weight="400" font-size="83" transform="matrix(1 0 0 1 3358.41 3628)">Decoder</text><text font-family="Times New Roman,Times New Roman_MSFontService,sans-serif" font-weight="400" font-size="83" transform="matrix(1 0 0 1 2690.82 3855)">MSTA</text><text font-family="Times New Roman,Times New Roman_MSFontService,sans-serif" font-weight="400" font-size="83" transform="matrix(1 0 0 1 2929.45 3855)">module</text><text font-family="Times New Roman,Times New Roman_MSFontService,sans-serif" font-weight="400" font-size="83" transform="matrix(1 0 0 1 1825.37 3474)">Input </text><text font-family="Times New Roman,Times New Roman_MSFontService,sans-serif" font-style="italic" font-weight="400" font-size="83" transform="matrix(1 0 0 1 2020.17 3474)">X </text><text font-family="Times New Roman,Times New Roman_MSFontService,sans-serif" font-style="italic" font-weight="400" font-size="55" transform="matrix(1 0 0 1 2091.21 3441)">t,T</text><text font-family="Times New Roman,Times New Roman_MSFontService,sans-serif" font-weight="400" font-size="83" transform="matrix(1 0 0 1 4080.04 3474)">Output </text><text font-family="Times New Roman,Times New Roman_MSFontService,sans-serif" font-style="italic" font-weight="400" font-size="83" transform="matrix(1 0 0 1 4329.83 3474)">Y </text><text font-family="Times New Roman,Times New Roman_MSFontService,sans-serif" font-style="italic" font-weight="400" font-size="55" transform="matrix(1 0 0 1 4396.29 3441)">t</text><text font-family="Times New Roman,Times New Roman_MSFontService,sans-serif" font-weight="400" font-size="55" transform="matrix(1 0 0 1 4411.76 3441)">+1</text><text font-family="Times New Roman,Times New Roman_MSFontService,sans-serif" font-style="italic" font-weight="400" font-size="55" transform="matrix(1 0 0 1 4470.19 3441)">,T</text><text font-family="Times New Roman,Times New Roman_MSFontService,sans-serif" font-style="italic" font-weight="400" font-size="55" transform="matrix(1 0 0 1 4514.31 3433)">’</text></g></svg>